<svg width="24" height="24" viewBox="0 0 24 24" fill="none" xmlns="http://www.w3.org/2000/svg">
  <defs>
    <!-- Rich Gradient for Tier 4 -->
    <linearGradient id="romanceGradient4" x1="0%" y1="0%" x2="100%" y2="100%">
      <stop offset="0%" stop-color="#F9A8D4" /> <!-- Lighter pink -->
      <stop offset="100%" stop-color="#F472B6" /> <!-- Base pink -->
    </linearGradient>
  </defs>

  <!-- Radiant Halo (Outer Ring) -->
  <circle cx="12" cy="12" r="11.5" stroke="#F472B6" stroke-width="0.5" stroke-dasharray="2 1" opacity="0.8"/>
  
  <!-- Solid Gradient Background -->
  <circle cx="12" cy="12" r="10" fill="url(#romanceGradient4)"/>
  
  <!-- White Glyph -->
  <g transform="translate(1.8, 1.8) scale(0.85)">
    <path 
      d="M10 16C12.2091 16 14 14.2091 14 12C14 9.79086 12.2091 8 10 8C7.79086 8 6 9.79086 6 12C6 14.2091 7.79086 16 10 16Z" 
      stroke="#FFFFFF" 
      stroke-width="1.8" 
      stroke-linecap="round"
    />
    <path 
      d="M14 16C16.2091 16 18 14.2091 18 12C18 9.79086 16.2091 8 14 8C11.79086 8 10 9.79086 10 12C10 14.2091 11.79086 16 14 16Z" 
      stroke="#FFFFFF" 
      stroke-width="1.8" 
      stroke-linecap="round"
    />
  </g>
</svg>